# AST/ASF file generated using VICON BodyLanguage
# -----------------------------------------------
:version 1.10
:name VICON
:units
  mass 1.0
  length 0.45
  angle deg
:documentation
   .ast/.asf automatically generated from VICON data using
   VICON BodyBuilder and BodyLanguage model FoxedUp or BRILLIANT.MOD
:root
   order TX TY TZ RX RY RZ
   axis XYZ
   position 0 0 0  
   orientation 0 0 0 
:bonedata
  begin
     id 1 
     name lhipjoint
     direction 0.627457 -0.725269 0.283342 
     length 2.53237 
     axis 0 0 0  XYZ
  end
  begin
     id 2 
     name lfemur
     direction 0.34202 -0.939693 0  
     length 7.32496  
     axis 0 0 20  XYZ
    dof rx ry rz
    limits (-160.0 20.0)
           (-70.0 70.0)
           (-60.0 70.0)
  end
  begin
     id 3 
     name ltibia
     direction 0.34202 -0.939693 0   
     length 7.69674   
     axis 0 0 20   XYZ
    dof rx
    limits (-10.0 170.0)
  end
  begin
     id 4 
     name lfoot
     direction 0.127289 -0.349722 0.928166   
     length 1.8612   
     axis -90 7.62852e-016 20   XYZ
    dof rx rz
    limits (-45.0 90.0)
           (-70.0 20.0)
  end
  begin
     id 5 
     name ltoes
     direction 1.53561e-011 -4.21864e-011 1   
     length 0.925608   
     axis -90 7.62852e-016 20   XYZ
    dof rx
    limits (-90.0 20.0)
  end
  begin
     id 6 
     name rhipjoint
     direction -0.609094 -0.738725 0.288599   
     length 2.48624  
     axis 0 0 0  XYZ 
  end
  begin
     id 7 
     name rfemur
     direction -0.34202 -0.939693 0   
     length 7.44259   
     axis 0 0 -20   XYZ
    dof rx ry rz
    limits (-160.0 20.0)
           (-70.0 70.0)
           (-70.0 60.0)
  end
  begin
     id 8 
     name rtibia
     direction -0.34202 -0.939693 0   
     length 7.7781   
     axis 0 0 -20   XYZ
    dof rx
    limits (-10.0 170.0)
 end
 begin
     id 9 
     name rfoot
     direction -0.107015 -0.294021 0.949789   
     length 2.14741  
     axis -90 -7.62852e-016 -20   XYZ
    dof rx rz
    limits (-45.0 90.0)
           (-20.0 70.0)
  end
  begin
     id 10 
     name rtoes
     direction -1.53497e-011 -4.21924e-011 1   
     length 1.0706   
     axis -90 -7.62852e-016 -20   XYZ
    dof rx
    limits (-90.0 20.0)
  end
  begin
     id 11 
     name lowerback
     direction -0.0142066 0.998112 -0.0597545   
     length 1.86627   
     axis 0 0 0   XYZ
    dof rx ry rz
    limits (-20.0 45.0)
           (-30.0 30.0)
           (-30.0 30.0)
  end
  begin
     id 12 
     name upperback
     direction 0.00547294 0.999744 0.0219437   
     length 1.86272   
     axis 0 0 0   XYZ
    dof rx ry rz
    limits (-20.0 45.0)
           (-30.0 30.0)
           (-30.0 30.0)
  end
  begin
     id 13 
     name thorax
     direction 0.0116162 0.998704 0.0495538   
     length 1.8703   
     axis 0 0 0   XYZ
    dof rx ry rz
    limits (-20.0 45.0)
           (-30.0 30.0)
           (-30.0 30.0)
  end
  begin
     id 14 
     name lowerneck
     direction -0.0106574 0.998739 0.0490586   
     length 1.8074   
     axis 0 0 0   XYZ
    dof rx ry rz
    limits (-20.0 45.0)
           (-30.0 30.0)
           (-30.0 30.0)
  end
  begin
     id 15 
     name upperneck
     direction 0.030527 0.976587 -0.212944   
     length 1.80681   
     axis 0 0 0   XYZ
    dof rx ry rz
    limits (-20.0 45.0)
           (-30.0 30.0)
           (-30.0 30.0)
  end
  begin
     id 16
     name head
     direction 0.00869225 0.997035 -0.0764531  
     length 1.8313  
     axis 0 0 0   XYZ
    dof rx ry rz
    limits (-20.0 45.0)
           (-30.0 30.0)
           (-30.0 30.0)
  end
  begin
     id 17 
     name lclavicle
     direction 0.915958 0.399447 0.0382386  
     length 3.78965  
     axis 0 0 0   XYZ
    dof ry rz
    limits (-20.0 10.0)
           (0.0 20.0)
  end
  begin
     id 18 
     name lhumerus
     direction 1 -4.48967e-011 3.19303e-027   
     length 4.78095   
     axis -180 -30 -90   XYZ
    dof rx ry rz
    limits (-60.0 90.0)
           (-90.0 90.0)
           (-90.0 90.0)
  end
  begin
     id 19
     name lradius
     direction 1 -4.48967e-011 -3.77974e-027   
     length 3.58615   
     axis -180 -30 -90   XYZ
    dof rx
    limits (-10.0 170.0)
  end
  begin
     id 20
     name lwrist
     direction 1 -4.48927e-011 1.2807e-027   
     length 1.79307   
     axis 1.91374e-015 90 90   XYZ
    dof ry
    limits (-180.0 0.0)
 end
  begin
     id 21 
     name lhand
     direction 1 -4.49036e-011 2.5614e-027   
     length 0.659812   
     axis -1.63439e-015 90 90   XYZ
    dof rx rz
    limits (-90.0 90.0)
           (-45.0 45.0)
  end
  begin
     id 22 
     name lfingers
     direction 1 -4.49052e-011 5.1228e-027   
     length 0.531957   
     axis -3.26879e-015 90 90   XYZ
    dof rx
    limits (0.0 90.0)
  end
  begin
     id 23
     name lthumb
     direction 0.707107 -6.35012e-011 0.707107   
     length 0.763787   
     axis -90 45 2.85299e-015   XYZ
    dof rx rz
    limits (-45.0 45.0)
           (-45.0 45.0)
  end
  begin
     id 24 
     name rclavicle
     direction -0.895351 0.435135 0.0948887   
     length 3.70497  
     axis 0 0 0   XYZ 
    dof ry rz
    limits (-10.0 20.0)
           (-20.0 0.0)
  end
  begin
     id 25 
     name rhumerus
     direction -1 -4.48971e-011 2.38946e-027  
     length 4.48913   
     axis -180 30 90   XYZ
    dof rx ry rz
    limits (-90.0 60.0)
           (-90.0 90.0)
           (-90.0 90.0)
  end
  begin
     id 26 
     name rradius
     direction -1 -4.4895e-011 4.38668e-027   
     length 3.7051   
     axis -180 30 90   XYZ
    dof rx
    limits (-10.0 170.0)
  end
  begin
     id 27 
     name rwrist
     direction -1 -4.49007e-011 1.2807e-027   
     length 1.85255   
     axis 1.91374e-015 -90 -90   XYZ
    dof ry
    limits (-180.0 0.0)
  end
  begin
     id 28
     name rhand
     direction -1 -4.48851e-011 2.5614e-027   
     length 0.449136   
     axis -1.63439e-015 -90 -90   XYZ
    dof rx rz
    limits (-90.0 90.0)
           (-45.0 45.0)
  end
  begin
     id 29
     name rfingers
     direction -1 -4.49128e-011 5.1228e-027   
     length 0.362105   
     axis -3.26879e-015 -90 -90   XYZ
    dof rx
    limits (0.0 90.0)
  end
  begin
     id 30
     name rthumb
     direction -0.707107 -6.34851e-011 0.707107   
     length 0.519912   
     axis -90 -45 -2.85299e-015   XYZ
    dof rx rz
    limits (-45.0 45.0)
           (-45.0 45.0)
  end
:hierarchy
  begin
    root lhipjoint rhipjoint lowerback
    lhipjoint lfemur
    lfemur ltibia
    ltibia lfoot
    lfoot ltoes
    rhipjoint rfemur
    rfemur rtibia
    rtibia rfoot
    rfoot rtoes
    lowerback upperback
    upperback thorax
    thorax lowerneck lclavicle rclavicle
    lowerneck upperneck
    upperneck head
    lclavicle lhumerus
    lhumerus lradius
    lradius lwrist
    lwrist lhand lthumb
    lhand lfingers
    rclavicle rhumerus
    rhumerus rradius
    rradius rwrist
    rwrist rhand rthumb
    rhand rfingers
  end

#!OML:ASF I:\Actors\actors\Patient Classification 2\Patient 1\Session 1\actor1.ASF
:FULLY-SPECIFIED
:DEGREES
52
root -0.739931 18.6648 5.91391 0.716908 -5.51321 -5.51954
lowerback 1.30001 0.877762 3.06578
upperback -1.49169 1.26666 1.17113
thorax -2.22053 0.591829 -0.555658
lowerneck -11.7847 0.540109 0.753404
upperneck 22.7111 0.047413 2.23762
head 9.06102 0.321774 0.640665
rclavicle 1.7903e-014 -5.1684e-015
rhumerus -47.3464 -3.93763 -86.3983
rradius 39.2987
rwrist 21.0752
rhand -6.36643 -26.6595
rfingers 7.12502
rthumb 19.4801 -55.7036
lclavicle 1.7903e-014 -5.1684e-015
lhumerus -41.7047 5.79342 88.2522
lradius 36.5907
lwrist -14.3486
lhand -3.06627 -25.3035
lfingers 7.12502
lthumb 22.6504 3.38735
rfemur 7.58538 -0.746997 19.0969
rtibia -3.81667e-014
rfoot -12.7752 -5.14816
rtoes -8.88941
lfemur -4.5664 -6.38224 -9.34759
ltibia 24.6129
lfoot -24.7908 13.4099
ltoes -55.0058
53
root -0.739957 18.6648 5.91514 0.71823 -5.5252 -5.52606
lowerback 1.27415 0.877567 3.07257
upperback -1.48833 1.26529 1.16756
thorax -2.20235 0.591268 -0.562586
lowerneck -11.7709 0.53935 0.775686
upperneck 22.6793 0.0462867 2.22118
head 9.04752 0.321013 0.630872
rclavicle 7.60351e-015 -4.77083e-015
rhumerus -47.3404 -3.9027 -86.4285
rradius 39.305
rwrist 21.0552
rhand -6.34132 -26.7021
rfingers 7.12502
rthumb 19.5042 -55.7438
lclavicle 7.60351e-015 -4.77083e-015
lhumerus -41.6691 5.84704 88.2221
lradius 36.564
lwrist -14.3687
lhand -3.01811 -25.2278
lfingers 7.12502
lthumb 22.6966 3.45738
rfemur 7.58789 -0.734743 19.1013
rtibia -9.54166e-015
rfoot -12.7662 -5.13296
rtoes -8.74806
lfemur -4.5531 -6.39046 -9.34403
ltibia 24.6016
lfoot -24.7824 13.4259
ltoes -54.9666
54
root -0.740313 18.6658 5.91644 0.749922 -5.53066 -5.51199
lowerback 1.22273 0.880913 3.04506
upperback -1.4978 1.26709 1.16193
thorax -2.18351 0.592743 -0.552234
lowerneck -11.7628 0.524213 0.796996
upperneck 22.6623 0.0216071 2.21805
head 9.04045 0.310708 0.623293
rclavicle 8.95773e-015 6.36111e-015
rhumerus -47.3484 -3.90054 -86.4292
rradius 39.3059
rwrist 21.043
rhand -6.34836 -26.6788
rfingers 7.12502
rthumb 19.4974 -55.7212
lclavicle 8.95773e-015 6.36111e-015
lhumerus -41.6504 5.85398 88.2182
lradius 36.5448
lwrist -14.3672
lhand -3.05614 -25.2363
lfingers 7.12502
lthumb 22.6601 3.45336
rfemur 7.55017 -0.730206 19.0896
rtibia -1.74931e-014
rfoot -12.745 -5.15838
rtoes -8.93591
lfemur -4.58149 -6.38137 -9.35482
ltibia 24.5947
lfoot -24.7727 13.443
ltoes -54.9867
55
root -0.740418 18.6661 5.91837 0.779619 -5.53777 -5.4954
lowerback 1.17773 0.878654 3.01047
upperback -1.51833 1.26202 1.16411
thorax -2.18021 0.590675 -0.529928
lowerneck -11.7315 0.519901 0.803294
upperneck 22.6536 0.0169441 2.20914
head 9.0316 0.307823 0.618466
rclavicle 1.83627e-014 2.78299e-015
rhumerus -47.3849 -3.8849 -86.4156
rradius 39.3179
rwrist 21.0117
rhand -6.33933 -26.7
rfingers 7.12502
rthumb 19.5061 -55.7415
lclavicle 1.83627e-014 2.78299e-015
lhumerus -41.6743 5.86874 88.2233
lradius 36.5529
lwrist -14.3561
lhand -3.09836 -25.3019
lfingers 7.12502
lthumb 22.6196 3.39271
rfemur 7.52046 -0.723771 19.0733
rtibia -9.54166e-015
rfoot -12.763 -5.16865
rtoes -8.92523
lfemur -4.60224 -6.37839 -9.37287
ltibia 24.5879
lfoot -24.791 13.4585
ltoes -55.0213
56
root -0.740114 18.6654 5.92043 0.766973 -5.55638 -5.51042
lowerback 1.17528 0.878077 3.01676
upperback -1.52127 1.2617 1.18139
thorax -2.18214 0.590507 -0.51569
lowerneck -11.7105 0.524969 0.785491
upperneck 22.636 0.032339 2.19351
head 9.02135 0.311582 0.617637
rclavicle -1.15544e-015 -8.74653e-015
rhumerus -47.3789 -3.87985 -86.3896
rradius 39.3033
rwrist 20.9975
rhand -6.35463 -26.6393
rfingers 7.12502
rthumb 19.4914 -55.6823
lclavicle -1.15544e-015 -8.74653e-015
lhumerus -41.6958 5.90366 88.2339
lradius 36.5757
lwrist -14.3488
lhand -3.08587 -25.2761
lfingers 7.12502
lthumb 22.6316 3.41711
rfemur 7.54053 -0.70477 19.0905
rtibia 1.90833e-014
rfoot -12.7731 -5.17463
rtoes -8.86099
lfemur -4.56903 -6.37545 -9.36297
ltibia 24.5843
lfoot -24.837 13.456
ltoes -55.07
57
root -0.739822 18.6649 5.92157 0.743984 -5.56394 -5.5228
lowerback 1.18302 0.876816 3.03135
upperback -1.51088 1.2606 1.19305
thorax -2.17582 0.589983 -0.511893
lowerneck -11.7328 0.529024 0.745969
upperneck 22.6547 0.0393382 2.22072
head 9.0318 0.314691 0.634594
rclavicle -1.66482e-014 5.96354e-015
rhumerus -47.3377 -3.89578 -86.3704
rradius 39.2752
rwrist 21.0132
rhand -6.39919 -26.5581
rfingers 7.12502
rthumb 19.4486 -55.6055
lclavicle -1.66482e-014 5.96354e-015
lhumerus -41.6983 5.91662 88.256
lradius 36.6029
lwrist -14.3273
lhand -3.06906 -25.2071
lfingers 7.12502
lthumb 22.6477 3.48414
rfemur 7.57114 -0.696619 19.104
rtibia 2.54444e-014
rfoot -12.7621 -5.1779
rtoes -8.99132
lfemur -4.53836 -6.35416 -9.34999
ltibia 24.587
lfoot -24.845 13.4402
ltoes -55.0729
58
root -0.739479 18.6644 5.92284 0.738231 -5.55985 -5.52222
lowerback 1.16618 0.869148 3.0291
upperback -1.50541 1.24953 1.19742
thorax -2.1612 0.584769 -0.505493
lowerneck -11.736 0.527848 0.711809
upperneck 22.6636 0.0336093 2.26753
head 9.03544 0.314158 0.655757
rclavicle 2.72087e-015 1.39149e-014
rhumerus -47.3316 -3.85972 -86.3751
rradius 39.283
rwrist 20.9839
rhand -6.39553 -26.5716
rfingers 7.12502
rthumb 19.4521 -55.6186
lclavicle 2.72087e-015 1.39149e-014
lhumerus -41.7107 5.93839 88.2665
lradius 36.6286
lwrist -14.3274
lhand -3.0795 -25.1758
lfingers 7.12502
lthumb 22.6377 3.5166
rfemur 7.58939 -0.699993 19.0978
rtibia -4.77083e-015
rfoot -12.7654 -5.14357
rtoes -8.80979
lfemur -4.52959 -6.35107 -9.35199
ltibia 24.5897
lfoot -24.8329 13.4284
ltoes -54.9833
59
root -0.739796 18.6637 5.92449 0.723378 -5.56309 -5.52437
lowerback 1.16076 0.867777 3.01697
upperback -1.50554 1.24724 1.19877
thorax -2.15862 0.583865 -0.497184
lowerneck -11.69 0.514122 0.701961
upperneck 22.6206 0.0106487 2.29875
head 9.0122 0.305215 0.664975
rclavicle 2.98177e-015 -5.36719e-015
rhumerus -47.3483 -3.81839 -86.3848
rradius 39.2954
rwrist 20.9224
rhand -6.3845 -26.6031
rfingers 7.12502
rthumb 19.4627 -55.6491
lclavicle 2.98177e-015 -5.36719e-015
lhumerus -41.7401 5.93546 88.2652
lradius 36.6447
lwrist -14.3299
lhand -3.12634 -25.218
lfingers 7.12502
lthumb 22.5927 3.47993
rfemur 7.6119 -0.696286 19.0991
rtibia -1.43125e-014
rfoot -12.7599 -5.12351
rtoes -8.48639
lfemur -4.50329 -6.37174 -9.35494
ltibia 24.5888
lfoot -24.8388 13.4341
ltoes -54.9398
60
root -0.741057 18.6639 5.92566 0.702293 -5.54067 -5.52694
lowerback 1.17746 0.86477 3.00072
upperback -1.51139 1.24379 1.20114
thorax -2.17451 0.582182 -0.485913
lowerneck -11.6478 0.497799 0.675635
upperneck 22.5801 -0.0106403 2.32267
head 8.99044 0.294942 0.674714
rclavicle -5.09386e-015 5.76476e-015
rhumerus -47.3729 -3.8294 -86.3804
rradius 39.3017
rwrist 20.9248
rhand -6.41095 -26.6248
rfingers 7.12502
rthumb 19.4373 -55.6733
lclavicle -5.09386e-015 5.76476e-015
lhumerus -41.7623 5.85779 88.3041
lradius 36.6561
lwrist -14.2461
lhand -3.20229 -25.2582
lfingers 7.12502
lthumb 22.5198 3.44859
rfemur 7.63725 -0.718689 19.1086
rtibia 1.43125e-014
rfoot -12.7374 -5.14602
rtoes -8.65676
lfemur -4.48259 -6.37279 -9.34616
ltibia 24.5879
lfoot -24.8276 13.4212
ltoes -55.0006
61
root -0.741837 18.6638 5.92705 0.681819 -5.51281 -5.54544
lowerback 1.18895 0.856692 3.00122
upperback -1.51036 1.23375 1.21447
thorax -2.18049 0.577206 -0.472416
lowerneck -11.6485 0.487359 0.617721
upperneck 22.5735 -0.0215074 2.36011
head 8.98824 0.288864 0.695988
rclavicle -1.30452e-015 5.96354e-015
rhumerus -47.3756 -3.86295 -86.3614
rradius 39.2904
rwrist 20.9798
rhand -6.39701 -26.6249
rfingers 7.12502
rthumb 19.4507 -55.672
lclavicle -1.30452e-015 5.96354e-015
lhumerus -41.7572 5.81052 88.3504
lradius 36.6611
lwrist -14.1627
lhand -3.22073 -25.1991
lfingers 7.12502
lthumb 22.5021 3.50982
rfemur 7.66899 -0.746149 19.133
rtibia 3.18055e-015
rfoot -12.7446 -5.15814
rtoes -8.98676
lfemur -4.46401 -6.3604 -9.3187
ltibia 24.589
lfoot -24.8151 13.3932
ltoes -55.0342
62
root -0.742323 18.6633 5.92848 0.663717 -5.50899 -5.56998
lowerback 1.18962 0.854304 3.00583
upperback -1.50602 1.23083 1.22768
thorax -2.1767 0.575869 -0.461333
lowerneck -11.6374 0.47258 0.601739
upperneck 22.5582 -0.0394798 2.36507
head 8.981 0.279386 0.698215
rclavicle -7.21837e-015 -1.80894e-014
rhumerus -47.3537 -3.89107 -86.3549
rradius 39.2655
rwrist 20.9996
rhand -6.33567 -26.6604
rfingers 7.12502
rthumb 19.5097 -55.7015
lclavicle -7.21837e-015 -1.80894e-014
lhumerus -41.736 5.83788 88.35
lradius 36.638
lwrist -14.1944
lhand -3.19469 -25.1215
lfingers 7.12502
lthumb 22.5271 3.5844
rfemur 7.69906 -0.749425 19.1614
rtibia 1.43125e-014
rfoot -12.7561 -5.14772
rtoes -9.00255
lfemur -4.44115 -6.35793 -9.29086
ltibia 24.593
lfoot -24.8187 13.3878
ltoes -55.0495
63
root -0.742947 18.6635 5.92933 0.673013 -5.50846 -5.58875
lowerback 1.17525 0.860877 3.02604
upperback -1.51459 1.23953 1.22003
thorax -2.17662 0.579745 -0.480544
lowerneck -11.6189 0.456853 0.659977
upperneck 22.5373 -0.0619245 2.31711
head 8.97073 0.268401 0.669343
rclavicle -1.91206e-014 -3.97569e-015
rhumerus -47.3512 -3.93772 -86.3717
rradius 39.2591
rwrist 20.9866
rhand -6.23563 -26.7148
rfingers 7.12502
rthumb 19.6058 -55.7462
lclavicle -1.91206e-014 -3.97569e-015
lhumerus -41.6944 5.83509 88.3334
lradius 36.5796
lwrist -14.2586
lhand -3.23158 -25.073
lfingers 7.12502
lthumb 22.4917 3.63719
rfemur 7.69701 -0.749996 19.1845
rtibia 2.22639e-014
rfoot -12.7403 -5.14074
rtoes -8.94096
lfemur -4.45119 -6.38881 -9.27049
ltibia 24.6015
lfoot -24.8424 13.4052
ltoes -55.0677
64
root -0.742883 18.6636 5.92986 0.687875 -5.5037 -5.61106
lowerback 1.16251 0.863966 3.05769
upperback -1.52073 1.24363 1.20244
thorax -2.17464 0.5811 -0.516222
lowerneck -11.6335 0.463651 0.769534
upperneck 22.5275 -0.0592507 2.24664
head 8.97034 0.271462 0.627166
rclavicle 1.02747e-014 1.59028e-015
rhumerus -47.3468 -4.00585 -86.391
rradius 39.2312
rwrist 21.0157
rhand -6.17493 -26.6756
rfingers 7.12502
rthumb 19.6642 -55.701
lclavicle 1.02747e-014 1.59028e-015
lhumerus -41.6394 5.82271 88.3009
lradius 36.5277
lwrist -14.3068
lhand -3.26968 -25.057
lfingers 7.12502
lthumb 22.4551 3.65754
rfemur 7.68902 -0.754768 19.2101
rtibia -9.54166e-015
rfoot -12.7438 -5.1417
rtoes -9.01855
lfemur -4.47028 -6.40755 -9.24551
ltibia 24.6122
lfoot -24.862 13.3994
ltoes -55.0615
65
root -0.742526 18.6636 5.93069 0.69503 -5.49178 -5.6259
lowerback 1.14412 0.855826 3.0675
upperback -1.51328 1.23193 1.19925
thorax -2.15674 0.575367 -0.524267
lowerneck -11.6354 0.476724 0.815766
upperneck 22.5002 -0.0448587 2.22353
head 8.96127 0.279432 0.612915
rclavicle -1.51449e-014 -2.0276e-014
rhumerus -47.3249 -4.03321 -86.3956
rradius 39.2018
rwrist 21.0552
rhand -6.17128 -26.6004
rfingers 7.12502
rthumb 19.6677 -55.6255
lclavicle -1.51449e-014 -2.0276e-014
lhumerus -41.598 5.85957 88.2698
lradius 36.5186
lwrist -14.3525
lhand -3.23325 -25.0269
lfingers 7.12502
lthumb 22.4901 3.68341
rfemur 7.6879 -0.766553 19.226
rtibia 9.54166e-015
rfoot -12.7623 -5.15306
rtoes -9.13203
lfemur -4.48403 -6.36386 -9.2213
ltibia 24.6211
lfoot -24.8453 13.3424
ltoes -55.0363
66
root -0.742292 18.6634 5.93198 0.702523 -5.49071 -5.63189
lowerback 1.12466 0.852505 3.06668
upperback -1.50857 1.2267 1.20927
thorax -2.14134 0.573097 -0.51301
lowerneck -11.6357 0.474115 0.779619
upperneck 22.4866 -0.0455564 2.24503
head 8.95656 0.278201 0.626158
rclavicle -9.46712e-015 -1.59028e-015
rhumerus -47.3208 -4.00797 -86.4016
rradius 39.2271
rwrist 21.0318
rhand -6.14082 -26.5916
rfingers 7.12502
rthumb 19.697 -55.6136
lclavicle -9.46712e-015 -1.59028e-015
lhumerus -41.5877 5.88404 88.2747
lradius 36.5364
lwrist -14.3624
lhand -3.18811 -25.0134
lfingers 7.12502
lthumb 22.5334 3.69172
rfemur 7.68298 -0.767584 19.2319
rtibia -2.70347e-014
rfoot -12.7802 -5.16275
rtoes -9.15515
lfemur -4.4922 -6.32037 -9.20922
ltibia 24.6282
lfoot -24.8183 13.3198
ltoes -55.0337
